<mxfile host="Electron" modified="2024-03-18T11:22:01.310Z" agent="Mozilla/5.0 (X11; Linux x86_64) AppleWebKit/537.36 (KHTML, like Gecko) draw.io/24.0.4 Chrome/120.0.6099.109 Electron/28.1.0 Safari/537.36" etag="DM5iVTUDaxCDBxLx9zX0" version="24.0.4" type="device">
  <diagram name="Page-1" id="vUJvHMVq9Ax0yadY_CV4">
    <mxGraphModel dx="1602" dy="2092" grid="1" gridSize="10" guides="1" tooltips="1" connect="1" arrows="1" fold="1" page="1" pageScale="1" pageWidth="850" pageHeight="1100" math="0" shadow="0">
      <root>
        <mxCell id="0" />
        <mxCell id="1" parent="0" />
        <mxCell id="TpBj-TmsRjUd91NX4HEI-1" style="edgeStyle=orthogonalEdgeStyle;rounded=0;orthogonalLoop=1;jettySize=auto;html=1;exitX=0;exitY=0.5;exitDx=0;exitDy=0;endArrow=block;endFill=0;fontFamily=Titillium Web;strokeWidth=2;" edge="1" parent="1" source="TpBj-TmsRjUd91NX4HEI-2" target="TpBj-TmsRjUd91NX4HEI-7">
          <mxGeometry relative="1" as="geometry" />
        </mxCell>
        <mxCell id="TpBj-TmsRjUd91NX4HEI-2" value="&lt;font style=&quot;font-size: 20px;&quot;&gt;Activity&lt;/font&gt;" style="swimlane;fontStyle=1;align=center;verticalAlign=top;childLayout=stackLayout;horizontal=1;startSize=40;horizontalStack=0;resizeParent=1;resizeParentMax=0;resizeLast=0;collapsible=1;marginBottom=0;whiteSpace=wrap;html=1;fontFamily=Titillium Web;strokeWidth=2;" vertex="1" collapsed="1" parent="1">
          <mxGeometry x="335" width="90" height="40" as="geometry">
            <mxRectangle x="340" y="40" width="170" height="176" as="alternateBounds" />
          </mxGeometry>
        </mxCell>
        <mxCell id="TpBj-TmsRjUd91NX4HEI-3" value="&lt;div style=&quot;font-size: 16px;&quot;&gt;&lt;font style=&quot;font-size: 16px;&quot;&gt;+ datetime: Datetime&lt;/font&gt;&lt;/div&gt;&lt;div style=&quot;font-size: 16px;&quot;&gt;&lt;font style=&quot;font-size: 16px;&quot;&gt;+ method: str&lt;/font&gt;&lt;/div&gt;&lt;div style=&quot;font-size: 16px;&quot;&gt;&lt;font style=&quot;font-size: 16px;&quot;&gt;+ location: str&lt;/font&gt;&lt;/div&gt;&lt;div style=&quot;font-size: 16px;&quot;&gt;&lt;font style=&quot;font-size: 16px;&quot;&gt;+ steps: &lt;b style=&quot;&quot;&gt;ActivityStep&lt;/b&gt;&lt;/font&gt;&lt;br&gt;&lt;/div&gt;" style="text;strokeColor=none;fillColor=none;align=left;verticalAlign=top;spacingLeft=4;spacingRight=4;overflow=hidden;rotatable=0;points=[[0,0.5],[1,0.5]];portConstraint=eastwest;whiteSpace=wrap;html=1;fontFamily=Titillium Web;" vertex="1" parent="TpBj-TmsRjUd91NX4HEI-2">
          <mxGeometry y="40" width="170" height="94" as="geometry" />
        </mxCell>
        <mxCell id="TpBj-TmsRjUd91NX4HEI-4" value="" style="line;strokeWidth=2;fillColor=none;align=left;verticalAlign=middle;spacingTop=-1;spacingLeft=3;spacingRight=3;rotatable=0;labelPosition=right;points=[];portConstraint=eastwest;strokeColor=inherit;fontFamily=Titillium Web;" vertex="1" parent="TpBj-TmsRjUd91NX4HEI-2">
          <mxGeometry y="134" width="170" height="8" as="geometry" />
        </mxCell>
        <mxCell id="TpBj-TmsRjUd91NX4HEI-5" value="&lt;font style=&quot;font-size: 16px;&quot;&gt;+ normalize()&lt;/font&gt;" style="text;strokeColor=none;fillColor=none;align=left;verticalAlign=top;spacingLeft=4;spacingRight=4;overflow=hidden;rotatable=0;points=[[0,0.5],[1,0.5]];portConstraint=eastwest;whiteSpace=wrap;html=1;fontFamily=Titillium Web;" vertex="1" parent="TpBj-TmsRjUd91NX4HEI-2">
          <mxGeometry y="142" width="170" height="34" as="geometry" />
        </mxCell>
        <mxCell id="TpBj-TmsRjUd91NX4HEI-6" style="edgeStyle=orthogonalEdgeStyle;rounded=0;orthogonalLoop=1;jettySize=auto;html=1;entryX=0.5;entryY=1;entryDx=0;entryDy=0;endArrow=block;endFill=0;fontFamily=Titillium Web;exitX=0.5;exitY=0;exitDx=0;exitDy=0;strokeWidth=2;" edge="1" parent="1" source="TpBj-TmsRjUd91NX4HEI-19" target="TpBj-TmsRjUd91NX4HEI-2">
          <mxGeometry relative="1" as="geometry">
            <mxPoint x="240" y="350" as="sourcePoint" />
          </mxGeometry>
        </mxCell>
        <mxCell id="TpBj-TmsRjUd91NX4HEI-7" value="&lt;font style=&quot;font-size: 20px;&quot;&gt;BaseSection&lt;/font&gt;" style="swimlane;fontStyle=1;align=center;verticalAlign=top;childLayout=stackLayout;horizontal=1;startSize=40;horizontalStack=0;resizeParent=1;resizeParentMax=0;resizeLast=0;collapsible=1;marginBottom=0;whiteSpace=wrap;html=1;fontFamily=Titillium Web;strokeWidth=2;" vertex="1" collapsed="1" parent="1">
          <mxGeometry x="160" width="120" height="40" as="geometry">
            <mxRectangle x="160" width="160" height="176" as="alternateBounds" />
          </mxGeometry>
        </mxCell>
        <mxCell id="TpBj-TmsRjUd91NX4HEI-8" value="&lt;div style=&quot;font-size: 16px;&quot;&gt;&lt;font style=&quot;font-size: 16px;&quot;&gt;+ name: str&lt;/font&gt;&lt;/div&gt;&lt;div style=&quot;font-size: 16px;&quot;&gt;&lt;font style=&quot;font-size: 16px;&quot;&gt;+ datetime: Datetime&lt;/font&gt;&lt;/div&gt;&lt;div style=&quot;font-size: 16px;&quot;&gt;&lt;font style=&quot;font-size: 16px;&quot;&gt;+ lab_id: str&lt;/font&gt;&lt;/div&gt;&lt;div style=&quot;font-size: 16px;&quot;&gt;&lt;font style=&quot;font-size: 16px;&quot;&gt;+ description: str&lt;/font&gt;&lt;br&gt;&lt;/div&gt;" style="text;strokeColor=none;fillColor=none;align=left;verticalAlign=top;spacingLeft=4;spacingRight=4;overflow=hidden;rotatable=0;points=[[0,0.5],[1,0.5]];portConstraint=eastwest;whiteSpace=wrap;html=1;fontFamily=Titillium Web;" vertex="1" parent="TpBj-TmsRjUd91NX4HEI-7">
          <mxGeometry y="40" width="160" height="94" as="geometry" />
        </mxCell>
        <mxCell id="TpBj-TmsRjUd91NX4HEI-9" value="" style="line;strokeWidth=2;fillColor=none;align=left;verticalAlign=middle;spacingTop=-1;spacingLeft=3;spacingRight=3;rotatable=0;labelPosition=right;points=[];portConstraint=eastwest;strokeColor=inherit;fontFamily=Titillium Web;" vertex="1" parent="TpBj-TmsRjUd91NX4HEI-7">
          <mxGeometry y="134" width="160" height="8" as="geometry" />
        </mxCell>
        <mxCell id="TpBj-TmsRjUd91NX4HEI-10" value="&lt;font style=&quot;font-size: 16px;&quot;&gt;+ normalize()&lt;/font&gt;" style="text;strokeColor=none;fillColor=none;align=left;verticalAlign=top;spacingLeft=4;spacingRight=4;overflow=hidden;rotatable=0;points=[[0,0.5],[1,0.5]];portConstraint=eastwest;whiteSpace=wrap;html=1;fontFamily=Titillium Web;" vertex="1" parent="TpBj-TmsRjUd91NX4HEI-7">
          <mxGeometry y="142" width="160" height="34" as="geometry" />
        </mxCell>
        <mxCell id="TpBj-TmsRjUd91NX4HEI-23" style="edgeStyle=orthogonalEdgeStyle;rounded=0;orthogonalLoop=1;jettySize=auto;html=1;exitX=0.5;exitY=0;exitDx=0;exitDy=0;endArrow=block;endFill=0;strokeWidth=2;" edge="1" parent="1" source="TpBj-TmsRjUd91NX4HEI-12" target="TpBj-TmsRjUd91NX4HEI-19">
          <mxGeometry relative="1" as="geometry">
            <Array as="points">
              <mxPoint x="220" y="310" />
              <mxPoint x="380" y="310" />
            </Array>
          </mxGeometry>
        </mxCell>
        <mxCell id="TpBj-TmsRjUd91NX4HEI-24" style="edgeStyle=orthogonalEdgeStyle;rounded=0;orthogonalLoop=1;jettySize=auto;html=1;exitX=0.5;exitY=0;exitDx=0;exitDy=0;endArrow=block;endFill=0;strokeWidth=2;" edge="1" parent="1" source="TpBj-TmsRjUd91NX4HEI-12" target="TpBj-TmsRjUd91NX4HEI-16">
          <mxGeometry relative="1" as="geometry">
            <Array as="points">
              <mxPoint x="220" y="310" />
              <mxPoint x="135" y="310" />
            </Array>
          </mxGeometry>
        </mxCell>
        <mxCell id="TpBj-TmsRjUd91NX4HEI-12" value="&lt;font style=&quot;font-size: 20px;&quot;&gt;Simulation&lt;/font&gt;" style="swimlane;fontStyle=1;align=center;verticalAlign=top;childLayout=stackLayout;horizontal=1;startSize=40;horizontalStack=0;resizeParent=1;resizeParentMax=0;resizeLast=0;collapsible=1;marginBottom=0;whiteSpace=wrap;html=1;fillColor=#009999;fontColor=#ffffff;fontFamily=Titillium Web;strokeWidth=2;" vertex="1" parent="1">
          <mxGeometry x="105" y="330" width="230" height="182" as="geometry">
            <mxRectangle x="790" y="120" width="80" height="30" as="alternateBounds" />
          </mxGeometry>
        </mxCell>
        <mxCell id="TpBj-TmsRjUd91NX4HEI-13" value="&lt;font style=&quot;font-size: 16px;&quot;&gt;&lt;span style=&quot;color: rgb(0, 0, 0); font-family: &amp;quot;Titillium Web&amp;quot;; font-style: normal; font-variant-ligatures: normal; font-variant-caps: normal; font-weight: 400; letter-spacing: normal; orphans: 2; text-align: left; text-indent: 0px; text-transform: none; widows: 2; word-spacing: 0px; -webkit-text-stroke-width: 0px; background-color: rgb(251, 251, 251); text-decoration-thickness: initial; text-decoration-style: initial; text-decoration-color: initial; float: none; display: inline !important;&quot;&gt;+ model_system:&amp;nbsp;&lt;/span&gt;&lt;span style=&quot;border-color: var(--border-color); color: rgb(0, 0, 0); font-family: &amp;quot;Titillium Web&amp;quot;; font-style: normal; font-variant-ligatures: normal; font-variant-caps: normal; letter-spacing: normal; orphans: 2; text-align: left; text-indent: 0px; text-transform: none; widows: 2; word-spacing: 0px; -webkit-text-stroke-width: 0px; background-color: rgb(251, 251, 251); text-decoration-thickness: initial; text-decoration-style: initial; text-decoration-color: initial;&quot;&gt;&lt;b&gt;ModelSystem&lt;/b&gt;&lt;br&gt;+ model_method:&lt;/span&gt;&lt;/font&gt;&lt;span style=&quot;border-color: var(--border-color); color: rgb(0, 0, 0); font-family: &amp;quot;Titillium Web&amp;quot;; font-style: normal; font-variant-ligatures: normal; font-variant-caps: normal; letter-spacing: normal; orphans: 2; text-align: left; text-indent: 0px; text-transform: none; widows: 2; word-spacing: 0px; -webkit-text-stroke-width: 0px; background-color: rgb(251, 251, 251); text-decoration-thickness: initial; text-decoration-style: initial; text-decoration-color: initial; font-size: 16px;&quot;&gt;&lt;font style=&quot;font-size: 16px;&quot;&gt;&lt;b style=&quot;&quot;&gt;&amp;nbsp;&lt;/b&gt;&lt;span style=&quot;border-color: var(--border-color);&quot;&gt;&lt;b&gt;ModelMethod&lt;/b&gt;&lt;br&gt;+ outputs:&lt;/span&gt;&lt;/font&gt;&lt;b style=&quot;font-weight: bold; border-color: var(--border-color);&quot;&gt;&lt;font style=&quot;font-size: 16px;&quot;&gt;&amp;nbsp;&lt;/font&gt;&lt;b style=&quot;border-color: var(--border-color);&quot;&gt;&lt;font style=&quot;font-size: 16px;&quot;&gt;Outputs&lt;/font&gt;&lt;br style=&quot;border-color: var(--border-color);&quot;&gt;&lt;/b&gt;&lt;/b&gt;&lt;/span&gt;" style="text;strokeColor=none;fillColor=none;align=left;verticalAlign=top;spacingLeft=4;spacingRight=4;overflow=hidden;rotatable=0;points=[[0,0.5],[1,0.5]];portConstraint=eastwest;whiteSpace=wrap;html=1;fontFamily=Titillium Web;" vertex="1" parent="TpBj-TmsRjUd91NX4HEI-12">
          <mxGeometry y="40" width="230" height="74" as="geometry" />
        </mxCell>
        <mxCell id="TpBj-TmsRjUd91NX4HEI-14" value="" style="line;strokeWidth=1;fillColor=none;align=left;verticalAlign=middle;spacingTop=-1;spacingLeft=3;spacingRight=3;rotatable=0;labelPosition=right;points=[];portConstraint=eastwest;strokeColor=inherit;fontFamily=Titillium Web;" vertex="1" parent="TpBj-TmsRjUd91NX4HEI-12">
          <mxGeometry y="114" width="230" height="8" as="geometry" />
        </mxCell>
        <mxCell id="TpBj-TmsRjUd91NX4HEI-15" value="&lt;div style=&quot;font-size: 16px;&quot;&gt;&lt;font style=&quot;font-size: 16px;&quot;&gt;- set_system_branch_depth()&lt;br&gt;&lt;/font&gt;&lt;/div&gt;&lt;div style=&quot;font-size: 16px;&quot;&gt;&lt;font style=&quot;font-size: 16px;&quot;&gt;+ normalize()&lt;/font&gt;&lt;/div&gt;" style="text;strokeColor=none;fillColor=none;align=left;verticalAlign=top;spacingLeft=4;spacingRight=4;overflow=hidden;rotatable=0;points=[[0,0.5],[1,0.5]];portConstraint=eastwest;whiteSpace=wrap;html=1;fontFamily=Titillium Web;" vertex="1" parent="TpBj-TmsRjUd91NX4HEI-12">
          <mxGeometry y="122" width="230" height="60" as="geometry" />
        </mxCell>
        <mxCell id="TpBj-TmsRjUd91NX4HEI-16" value="&lt;font style=&quot;font-size: 20px;&quot;&gt;EntryData&lt;/font&gt;" style="swimlane;fontStyle=1;align=center;verticalAlign=top;childLayout=stackLayout;horizontal=1;startSize=40;horizontalStack=0;resizeParent=1;resizeParentMax=0;resizeLast=0;collapsible=1;marginBottom=0;whiteSpace=wrap;html=1;fontFamily=Titillium Web;strokeWidth=2;" vertex="1" collapsed="1" parent="1">
          <mxGeometry x="80" y="80" width="110" height="40" as="geometry">
            <mxRectangle width="140" height="78" as="alternateBounds" />
          </mxGeometry>
        </mxCell>
        <mxCell id="TpBj-TmsRjUd91NX4HEI-17" value="" style="line;strokeWidth=1;fillColor=none;align=left;verticalAlign=middle;spacingTop=-1;spacingLeft=3;spacingRight=3;rotatable=0;labelPosition=right;points=[];portConstraint=eastwest;strokeColor=inherit;fontFamily=Titillium Web;" vertex="1" parent="TpBj-TmsRjUd91NX4HEI-16">
          <mxGeometry y="40" width="140" height="4" as="geometry" />
        </mxCell>
        <mxCell id="TpBj-TmsRjUd91NX4HEI-18" value="&lt;font style=&quot;font-size: 16px;&quot;&gt;+ normalize()&lt;/font&gt;" style="text;strokeColor=none;fillColor=none;align=left;verticalAlign=top;spacingLeft=4;spacingRight=4;overflow=hidden;rotatable=0;points=[[0,0.5],[1,0.5]];portConstraint=eastwest;whiteSpace=wrap;html=1;fontFamily=Titillium Web;" vertex="1" parent="TpBj-TmsRjUd91NX4HEI-16">
          <mxGeometry y="44" width="140" height="34" as="geometry" />
        </mxCell>
        <mxCell id="TpBj-TmsRjUd91NX4HEI-19" value="&lt;font style=&quot;font-size: 20px;&quot;&gt;BaseSimulation&lt;/font&gt;" style="swimlane;fontStyle=1;align=center;verticalAlign=top;childLayout=stackLayout;horizontal=1;startSize=40;horizontalStack=0;resizeParent=1;resizeParentMax=0;resizeLast=0;collapsible=1;marginBottom=0;whiteSpace=wrap;html=1;fontFamily=Titillium Web;strokeWidth=2;" vertex="1" parent="1">
          <mxGeometry x="280" y="80" width="200" height="206" as="geometry">
            <mxRectangle x="790" y="120" width="80" height="30" as="alternateBounds" />
          </mxGeometry>
        </mxCell>
        <mxCell id="TpBj-TmsRjUd91NX4HEI-20" value="&lt;div style=&quot;font-size: 16px;&quot;&gt;&lt;font style=&quot;font-size: 16px;&quot;&gt;+ datetime_end: Datetime&lt;/font&gt;&lt;/div&gt;&lt;div style=&quot;font-size: 16px;&quot;&gt;&lt;font style=&quot;font-size: 16px;&quot;&gt;+ cpu1_start: np.float64, s&lt;/font&gt;&lt;/div&gt;&lt;div style=&quot;font-size: 16px;&quot;&gt;&lt;font style=&quot;font-size: 16px;&quot;&gt;+ cpu1_end: np.float64, s&lt;/font&gt;&lt;/div&gt;&lt;div style=&quot;font-size: 16px;&quot;&gt;&lt;font style=&quot;font-size: 16px;&quot;&gt;+ wall_start: np.float64, s&lt;/font&gt;&lt;/div&gt;&lt;div style=&quot;font-size: 16px;&quot;&gt;&lt;font style=&quot;font-size: 16px;&quot;&gt;+ wall_end: np.float64, s&lt;/font&gt;&lt;/div&gt;&lt;div style=&quot;font-size: 16px;&quot;&gt;&lt;font style=&quot;font-size: 16px;&quot;&gt;+ program: &lt;b style=&quot;&quot;&gt;Program&lt;/b&gt;&lt;/font&gt;&lt;br&gt;&lt;/div&gt;" style="text;strokeColor=none;fillColor=none;align=left;verticalAlign=top;spacingLeft=4;spacingRight=4;overflow=hidden;rotatable=0;points=[[0,0.5],[1,0.5]];portConstraint=eastwest;whiteSpace=wrap;html=1;fontFamily=Titillium Web;" vertex="1" parent="TpBj-TmsRjUd91NX4HEI-19">
          <mxGeometry y="40" width="200" height="124" as="geometry" />
        </mxCell>
        <mxCell id="TpBj-TmsRjUd91NX4HEI-21" value="" style="line;strokeWidth=2;fillColor=none;align=left;verticalAlign=middle;spacingTop=-1;spacingLeft=3;spacingRight=3;rotatable=0;labelPosition=right;points=[];portConstraint=eastwest;strokeColor=inherit;fontFamily=Titillium Web;" vertex="1" parent="TpBj-TmsRjUd91NX4HEI-19">
          <mxGeometry y="164" width="200" height="8" as="geometry" />
        </mxCell>
        <mxCell id="TpBj-TmsRjUd91NX4HEI-22" value="&lt;font style=&quot;font-size: 16px;&quot;&gt;+ normalize()&lt;/font&gt;" style="text;strokeColor=none;fillColor=none;align=left;verticalAlign=top;spacingLeft=4;spacingRight=4;overflow=hidden;rotatable=0;points=[[0,0.5],[1,0.5]];portConstraint=eastwest;whiteSpace=wrap;html=1;fontFamily=Titillium Web;" vertex="1" parent="TpBj-TmsRjUd91NX4HEI-19">
          <mxGeometry y="172" width="200" height="34" as="geometry" />
        </mxCell>
        <mxCell id="TpBj-TmsRjUd91NX4HEI-25" value="" style="endArrow=none;html=1;rounded=0;strokeWidth=2;endFill=0;startArrow=block;startFill=0;" edge="1" parent="1">
          <mxGeometry width="50" height="50" relative="1" as="geometry">
            <mxPoint x="105" y="560" as="sourcePoint" />
            <mxPoint x="175" y="560" as="targetPoint" />
          </mxGeometry>
        </mxCell>
        <mxCell id="TpBj-TmsRjUd91NX4HEI-26" value="&lt;font style=&quot;font-size: 14px;&quot; face=&quot;Titillium Web&quot;&gt;inheriting from&lt;/font&gt;" style="text;html=1;align=center;verticalAlign=middle;whiteSpace=wrap;rounded=0;" vertex="1" parent="1">
          <mxGeometry x="175" y="550" width="90" height="20" as="geometry" />
        </mxCell>
      </root>
    </mxGraphModel>
  </diagram>
</mxfile>
